<svg width="18" height="18" viewBox="0 0 18 18" fill="none" xmlns="http://www.w3.org/2000/svg">
<path d="M3.24 1.44C2.25018 1.44 1.44 2.25017 1.44 3.24V14.76C1.44 15.7498 2.25018 16.56 3.24 16.56H9.29953C9.33841 16.5664 9.37808 16.5664 9.41696 16.56H11.4595C11.4984 16.5664 11.5381 16.5664 11.577 16.56H14.76C15.7498 16.56 16.56 15.7498 16.56 14.76V3.24C16.56 2.25017 15.7498 1.44 14.76 1.44H3.24ZM3.24 2.16H14.76C15.3607 2.16 15.84 2.63935 15.84 3.24V14.76C15.84 15.3607 15.3607 15.84 14.76 15.84H11.88V10.8H13.2553L13.7595 8.28H11.88V7.56C11.88 7.3593 11.8991 7.34362 11.9665 7.29984C12.0339 7.25607 12.2421 7.2 12.6 7.2H13.68V5.17289L13.4747 5.07516C13.4747 5.07516 12.6478 4.68 11.52 4.68C10.71 4.68 10.0446 5.00272 9.61875 5.535C9.19293 6.06728 9 6.78 9 7.56V8.28H7.92V10.8H9V15.84H3.24C2.63935 15.84 2.16 15.3607 2.16 14.76V3.24C2.16 2.63935 2.63935 2.16 3.24 2.16ZM11.52 5.4C12.2685 5.4 12.7395 5.56504 12.96 5.65242V6.48H12.6C12.1857 6.48 11.8537 6.51427 11.5741 6.69586C11.2946 6.87745 11.16 7.22214 11.16 7.56V9H12.8805L12.6647 10.08H11.16V15.84H9.72V10.08H8.64V9H9.72V7.56C9.72 6.9 9.88707 6.35272 10.1813 5.985C10.4754 5.61728 10.89 5.4 11.52 5.4Z" fill="black"/>
</svg>
